<svg xmlns="http://www.w3.org/2000/svg" viewBox="0 0 640 400" width="640" height="400" role="img" aria-label="nonprofit preview">
  <defs>
    <linearGradient id="g" x1="1" y1="0" x2="0" y2="1">
      <stop offset="0" stop-color="#059669"/>
      <stop offset="1" stop-color="#0d9488"/>
    </linearGradient>
  </defs>
  <rect width="640" height="400" fill="#f6f7fb"/>

  <rect x="0" y="0" width="640" height="46" fill="#ffffff"/>
  <rect x="24" y="16" width="76" height="14" rx="7" fill="url(#g)"/>
  <rect x="128" y="20" width="44" height="7" rx="3.5" fill="#cbd5e1"/>
  <rect x="184" y="20" width="52" height="7" rx="3.5" fill="#cbd5e1"/>
  <rect x="248" y="20" width="38" height="7" rx="3.5" fill="#cbd5e1"/>
  <circle cx="600" cy="23" r="9" fill="#eef2f7"/>
  <circle cx="574" cy="23" r="9" fill="#eef2f7"/>
  <line x1="0" y1="46" x2="640" y2="46" stroke="#e6e8ef" stroke-width="1"/>

  <rect x="24" y="62" width="592" height="96" rx="12" fill="url(#g)"/>
  <rect x="46" y="86" width="190" height="14" rx="7" fill="#ffffff" opacity=".92"/>
  <rect x="46" y="110" width="140" height="7" rx="3.5" fill="#ffffff" opacity=".6"/>
  <rect x="404" y="92" width="190" height="30" rx="15" fill="#ffffff"/>
  <circle cx="424" cy="107" r="7" fill="#059669" opacity=".5"/>
  <rect x="24.0" y="178" width="188.0" height="100" rx="10" fill="#ffffff" stroke="#e6e8ef"/>
  <rect x="34.0" y="188" width="168.0" height="44.0" rx="7" fill="#eef2f7"/>
  <rect x="34.0" y="240.0" width="127.8" height="6" rx="3" fill="#cbd5e1"/>
  <rect x="34.0" y="252.0" width="82.7" height="6" rx="3" fill="#e2e8f0"/>
  <rect x="226.0" y="178" width="188.0" height="100" rx="10" fill="#ffffff" stroke="#e6e8ef"/>
  <rect x="236.0" y="188" width="168.0" height="44.0" rx="7" fill="#eef2f7"/>
  <rect x="236.0" y="240.0" width="127.8" height="6" rx="3" fill="#cbd5e1"/>
  <rect x="236.0" y="252.0" width="82.7" height="6" rx="3" fill="#e2e8f0"/>
  <rect x="428.0" y="178" width="188.0" height="100" rx="10" fill="#ffffff" stroke="#e6e8ef"/>
  <rect x="438.0" y="188" width="168.0" height="44.0" rx="7" fill="#eef2f7"/>
  <rect x="438.0" y="240.0" width="127.8" height="6" rx="3" fill="#cbd5e1"/>
  <rect x="438.0" y="252.0" width="82.7" height="6" rx="3" fill="#e2e8f0"/>
  <rect x="24.0" y="290" width="188.0" height="78" rx="10" fill="#ffffff" stroke="#e6e8ef"/>
  <rect x="34.0" y="300" width="168.0" height="34.3" rx="7" fill="#eef2f7"/>
  <rect x="34.0" y="342.3" width="127.8" height="6" rx="3" fill="#cbd5e1"/>
  <rect x="34.0" y="354.3" width="82.7" height="6" rx="3" fill="#e2e8f0"/>
  <rect x="226.0" y="290" width="188.0" height="78" rx="10" fill="#ffffff" stroke="#e6e8ef"/>
  <rect x="236.0" y="300" width="168.0" height="34.3" rx="7" fill="#eef2f7"/>
  <rect x="236.0" y="342.3" width="127.8" height="6" rx="3" fill="#cbd5e1"/>
  <rect x="236.0" y="354.3" width="82.7" height="6" rx="3" fill="#e2e8f0"/>
  <rect x="428.0" y="290" width="188.0" height="78" rx="10" fill="#ffffff" stroke="#e6e8ef"/>
  <rect x="438.0" y="300" width="168.0" height="34.3" rx="7" fill="#eef2f7"/>
  <rect x="438.0" y="342.3" width="127.8" height="6" rx="3" fill="#cbd5e1"/>
  <rect x="438.0" y="354.3" width="82.7" height="6" rx="3" fill="#e2e8f0"/>
</svg>
