<svg xmlns="http://www.w3.org/2000/svg" viewBox="0 0 640 400" width="640" height="400" role="img" aria-label="startup preview">
  <defs>
    <linearGradient id="g" x1="1" y1="0" x2="0" y2="1">
      <stop offset="0" stop-color="#db2777"/>
      <stop offset="1" stop-color="#a855f7"/>
    </linearGradient>
  </defs>
  <rect width="640" height="400" fill="#f6f7fb"/>

  <rect x="0" y="0" width="640" height="46" fill="#ffffff"/>
  <rect x="24" y="16" width="76" height="14" rx="7" fill="url(#g)"/>
  <rect x="128" y="20" width="44" height="7" rx="3.5" fill="#cbd5e1"/>
  <rect x="184" y="20" width="52" height="7" rx="3.5" fill="#cbd5e1"/>
  <rect x="248" y="20" width="38" height="7" rx="3.5" fill="#cbd5e1"/>
  <circle cx="600" cy="23" r="9" fill="#eef2f7"/>
  <circle cx="574" cy="23" r="9" fill="#eef2f7"/>
  <line x1="0" y1="46" x2="640" y2="46" stroke="#e6e8ef" stroke-width="1"/>

  <rect x="0" y="46" width="640" height="200" fill="url(#g)"/>
  <circle cx="540" cy="96" r="72" fill="#fb7185" opacity=".28"/>
  <circle cx="96" cy="216" r="54" fill="#ffffff" opacity=".12"/>
  <rect x="256" y="104" width="128" height="9" rx="4.5" fill="#ffffff" opacity=".8"/>
  <rect x="190" y="126" width="260" height="18" rx="9" fill="#ffffff" opacity=".95"/>
  <rect x="224" y="156" width="192" height="7" rx="3.5" fill="#ffffff" opacity=".6"/>
  <rect x="228" y="180" width="88" height="26" rx="13" fill="#ffffff"/>
  <rect x="326" y="180" width="86" height="26" rx="13" fill="#ffffff" opacity=".26"/>
  
  <rect x="24.0" y="272" width="188.0" height="100" rx="10" fill="#ffffff" stroke="#e6e8ef"/>
  <rect x="34.0" y="282" width="168.0" height="44.0" rx="7" fill="#eef2f7"/>
  <rect x="34.0" y="334.0" width="127.8" height="6" rx="3" fill="#cbd5e1"/>
  <rect x="34.0" y="346.0" width="82.7" height="6" rx="3" fill="#e2e8f0"/>
  <rect x="226.0" y="272" width="188.0" height="100" rx="10" fill="#ffffff" stroke="#e6e8ef"/>
  <rect x="236.0" y="282" width="168.0" height="44.0" rx="7" fill="#eef2f7"/>
  <rect x="236.0" y="334.0" width="127.8" height="6" rx="3" fill="#cbd5e1"/>
  <rect x="236.0" y="346.0" width="82.7" height="6" rx="3" fill="#e2e8f0"/>
  <rect x="428.0" y="272" width="188.0" height="100" rx="10" fill="#ffffff" stroke="#e6e8ef"/>
  <rect x="438.0" y="282" width="168.0" height="44.0" rx="7" fill="#eef2f7"/>
  <rect x="438.0" y="334.0" width="127.8" height="6" rx="3" fill="#cbd5e1"/>
  <rect x="438.0" y="346.0" width="82.7" height="6" rx="3" fill="#e2e8f0"/>
</svg>
